<?xml version="1.0" encoding="utf-8"?>
<!-- Generator: Adobe Illustrator 28.3.0, SVG Export Plug-In . SVG Version: 6.00 Build 0)  -->
<svg version="1.1" id="Layer_1" xmlns="http://www.w3.org/2000/svg" xmlns:xlink="http://www.w3.org/1999/xlink" x="0px" y="0px"
	 viewBox="0 0 1296 405.8" style="enable-background:new 0 0 1296 405.8;" xml:space="preserve">
<style type="text/css">
	.st0{fill:#080808;}
</style>
<path class="st0" d="M284.34,266.93c-0.34-0.31-0.68-0.61-1.02-0.92c-0.31-0.25-0.61-0.49-0.92-0.74c-0.36-0.18-0.72-0.36-1.08-0.54
	c-0.13-0.16-0.25-0.33-0.38-0.49c0.05-0.28-0.2-0.45-0.28-0.69c-0.04-0.04-0.08-0.09-0.12-0.13c-0.53-0.37-1.29-0.34-1.69-0.93
	c-0.18-0.07-0.07-0.35-0.3-0.37c-0.46-0.38-0.9-0.78-1.49-0.98c-0.13-0.02-0.25-0.04-0.37-0.07c0.01-0.04,0.02-0.09,0.01-0.13
	c-0.37-0.5-0.17-1.23-0.72-1.65l0,0c-0.32-0.25-0.67-0.41-1.1-0.34c-0.68-0.24-1.53,0-2.04-0.69c-0.86-0.24-1.47-0.81-2.01-1.45
	c-0.07-0.11-0.13-0.23-0.2-0.34c-0.37-0.4,0.11-0.98-0.33-1.36c-0.81-0.37-1.6-0.37-2.37,0.1c-0.12,0.05-0.23,0.11-0.35,0.17
	c-0.24,0.24-0.56,0.2-0.87,0.21c-0.14,0.09-0.29,0.19-0.43,0.28c-0.75,0.38-1.55,0.25-2.34,0.25c-0.31,0.45-0.95,0.16-1.28,0.55
	c-1.35,0.11-2.69,0.23-4.03,0.34c-1.7,0-3.4,0.01-5.1,0.02c-1.84,0.23-3.68,0.45-5.52,0.69c-0.5,0.07-1.09-0.18-1.5,0.3
	c-0.05-0.01-0.1,0-0.14,0.03c-0.03-0.04-0.08-0.05-0.13-0.04c-0.15-0.34-0.44-0.23-0.7-0.21c-1.61,0.1-3.23,0.2-4.84,0.29
	c-0.25,0.24-0.57,0.1-0.85,0.15c-0.38,0.07-0.87-0.02-1.03,0.49c-0.94-0.14-1.77,0.48-2.7,0.39c-1.47-0.12-2.9,0.26-4.36,0.24
	c-0.15,0-0.3,0.16-0.45,0.26c-0.47,0.1-0.97-0.05-1.42,0.17c-1.27,0.18-2.55,0.36-3.82,0.56c-0.48,0.08-1.03,0.01-1.36,0.5
	c-0.28,0.01-0.57,0.03-0.85,0.04c-1.17,0.17-2.34,0.33-3.51,0.5c-0.11,0.01-0.22,0.03-0.34,0.04c-0.66,0-1.5,0.11-1.57-0.75
	c-0.1-1.32-0.31-2.69,0.48-3.92c0.13-0.2,0.23-0.41,0.17-0.66c0.09-1.13,0.24-2.25-0.09-3.37c0.9-1.81,0.17-5.07,0.18-7.04
	c0.02-2.24,0.12-4.47,0.15-6.71c0.56-0.02,1.03-0.23,1.44-0.58c-0.07,0-0.14-0.01-0.2-0.02c0.07,0.01,0.14,0.01,0.2,0.02
	c1.71-0.65,3.41-1.3,5.12-1.95c1.04-0.15,2.11,0.21,3.14-0.16c0.52,0.04,0.93-0.31,1.42-0.38c0.77-0.09,1.38-0.46,1.86-1.04
	c0.2,0,0.4-0.01,0.54-0.18c0.45-0.06,0.79-0.26,0.9-0.71c0.39-0.24,0.78-0.31,1.26-0.29c1.23,0.04,2.51,0.28,3.66-0.43
	c0.79-0.12,1.59-0.42,2.38,0.01c0.1,0.3,0.04,0.71,0.63,0.62c1.24-0.2,2.5-0.09,3.76-0.07c0.47,0.19,0.98,0.13,1.47,0.17
	c0.79,0.46,4.71,1.21,5.18,0.01c0.11-0.12,0.22-0.23,0.33-0.35c0.91-0.15,1.41-0.86,2.02-1.4c0.87-0.87,0.79-1.84,0.32-2.85
	c-0.16-0.14-0.33-0.28-0.49-0.43c-0.07,0.02-0.15,0.05-0.22,0.07c-0.3-0.48-0.61-0.96-0.91-1.44c0.03-0.24,0.01-0.44-0.06-0.62
	c0.07,0.17,0.09,0.38,0.06,0.62c0.3,0.48,0.61,0.96,0.91,1.44c0.08-0.02,0.15-0.04,0.22-0.07c-0.2-1.03-0.71-1.92-1.37-2.73
	c-0.25-0.31-0.55-0.65-1.06-0.56c-0.25-0.18-0.49-0.36-0.73-0.55c0.07-0.46-0.14-0.76-0.53-1.02c-0.68-0.45-1.51-0.53-2.2-0.94
	c0,0.07,0,0.13,0,0.2c0-0.07,0-0.14,0-0.2c-0.43-0.64-1.28-0.9-1.62-1.62c-0.09,0.19,0.03,0.44-0.17,0.6c0,0.1,0,0.2,0,0.3
	c0.05,0.05,0.1,0.1,0.16,0.15c0.19-0.02,0.35,0.03,0.49,0.11c-0.14-0.08-0.3-0.13-0.49-0.11c-0.05-0.05-0.11-0.1-0.16-0.15
	c0-0.1,0-0.2,0-0.3c0.2-0.16,0.08-0.41,0.17-0.6c0.01-0.05,0-0.1-0.03-0.15c-0.34-0.66-0.41-1.8-1.13-2.16
	c-0.51-0.26-2.1,0.28-2.54,0.55h0.01c-2.33,0.17-4.73-0.55-6.99,0.52c0.26,0.01,0.53,0.02,0.78,0.04c0.3,0,0.6,0.01,0.9,0.01
	c0.35-0.16,0.71-0.25,1.07-0.29c-0.37,0.05-0.73,0.13-1.07,0.29c-0.3,0-0.6-0.01-0.9-0.01c-0.26-0.01-0.52-0.03-0.78-0.04
	c-0.99,0.04-2-0.03-2.95,0.34c-0.4,0.01-0.78,0.06-1.06,0.37c-0.23,0.07-0.46,0.13-0.69,0.2c0,0.06,0,0.11,0,0.17
	c1.01,0.1,1.97,0.4,2.92,0.7c-0.96-0.3-1.91-0.6-2.92-0.7c0-0.06,0-0.11,0-0.17c-1.53,0.4-3.06,0.8-4.59,1.19
	c-1.11,0.13-2.2,0.27-3.28,0.57c-1.04-0.09-2.09-0.04-3.13,0.1c-0.26,0.04-0.52,0.19-0.73-0.09c-0.06-0.05-0.13-0.1-0.19-0.15
	c-0.23,0.18-0.4,0.25-0.54,0.24c0.14,0.01,0.31-0.06,0.54-0.24c0.07,0.05,0.13,0.1,0.19,0.15c-0.03-0.71,0.52-1.42,0.04-2.14
	c-0.57-2.21-0.56-4.46-0.37-6.71c0.59-1.33,0.63-2.82,0.78-4.24c0.18-1.58,0.87-3,1.04-4.59c0.35-0.79,0.14-1.75,0.78-2.47
	c1.11-0.04,2.14-0.31,3.05-0.94c0.6,0,1.08-0.38,1.66-0.48c0.91,0.11,1.56-0.57,2.38-0.73c0.22-0.06,0.4-0.18,0.53-0.37
	c0.32-0.17,0.64-0.34,0.96-0.51c0.3-0.1,0.61-0.2,0.92-0.3c0.75-0.14,1.6,0.07,2.21-0.57c2.59-0.18,5.12-0.64,7.63-1.28
	c0.49-0.11,0.98-0.23,1.47-0.35c0.68,0.06,1.37,0.09,2.04,0.09c0.73,0,1.42,0.46,2.15,0.12c0.19,0.5,0.54,0.28,0.86,0.18
	c2.08,0.32,4.12,0.29,6.09-0.53c0.54,0.17,1.08,0.34,1.63,0.51c0.11,0.28,0.35,0.31,0.6,0.24c1.39-0.36,2.65,0.27,3.96,0.48
	c0.38,0.24,0.66-0.02,0.95-0.19c0.57-0.47,1.2-0.88,1.5-1.58c0.35-0.42,0.7-0.85,1.05-1.27c0.83-0.71,0.1-1.9,0.09-2.77
	c-0.01-0.84,0.7-2.15-0.09-2.84c-0.06-0.13-0.13-0.25-0.19-0.38c-0.46-0.23-0.14-0.81-0.51-1.08c-0.06-0.18-0.13-0.35-0.19-0.53
	c-0.26-0.23-0.51-0.46-0.77-0.69c-0.05,0.01-0.11,0.02-0.16,0.02c0.05-0.01,0.11-0.01,0.16-0.02c-0.84-1.02-1.34-2.38-2.88-2.7
	c-0.92-0.74-2.25-0.73-3.11-1.58c-0.06,0.07-0.12,0.14-0.18,0.2c0.15,0.15,0.3,0.3,0.45,0.46c-0.15-0.15-0.3-0.31-0.46-0.46
	c0.06-0.07,0.12-0.13,0.18-0.2c-0.08-0.17-0.15-0.34-0.22-0.51c-0.05-0.33-0.25-0.56-0.55-0.71c-2.64-0.79-4.97-1.24-7.75-1.08
	c-0.7,0.04-6.61-0.3-6.51,0.68c-0.11,0-0.23,0-0.34,0.01c0-0.15,0-0.35-0.2-0.31c-1.23,0.27-2.55,0.22-3.65,0.93
	c-0.02,0.04-0.03,0.09-0.03,0.13c0-0.05,0.01-0.09,0.03-0.13c-1.56,0.01-3.06,0.39-4.58,0.65c-0.31,0.33-0.73,0.1-1.09,0.2
	c-0.25,0.11-0.49,0.22-0.74,0.33c0.25-0.11,0.49-0.22,0.74-0.33c0.36-0.11,0.78,0.12,1.09-0.2c-1.4-0.07-2.72,0.27-4.02,0.72
	c0,0.06,0,0.12,0,0.18c0-0.06,0-0.12,0-0.18c-0.33,0-0.68-0.05-0.99,0.02c-1.08,0.26-2.15,0.57-3.22,0.86
	c-0.68,0.12-1.29,0.51-2.01,0.51c-0.06,0-0.12,0-0.18,0c-0.36-0.05-0.7,0.07-1.04,0.14c-0.56,0.1-1.16,0.35-1.69-0.14
	c-0.13,0-0.25,0.01-0.38,0.02c0.13-0.01,0.25-0.01,0.38-0.02c-0.16-1.71-0.63-3.4-0.2-5.13c0.34-0.72,0.22-1.37-0.31-1.96
	c-0.14,0.01-0.28,0.01-0.41,0.02c-0.06,0.12-0.12,0.24-0.19,0.35c0.06-0.12,0.13-0.24,0.19-0.35c0.14-0.01,0.28-0.01,0.41-0.02
	c-0.28-0.81-0.19-1.65-0.22-2.48c-0.04-0.94,0.3-1.91-0.17-2.83c0.06-0.48,0.01-0.99,0.33-1.42c0.84-0.71,1.34-1.7,2.12-2.47
	c0.32-0.32,0.46-0.75,0.48-1.2l-0.05-0.05c0,0,0.05,0.05,0.05,0.05c0.49,0.02,0.5-0.44,0.73-0.69c0.25-0.39,0.49-0.79,0.35-1.28
	c0.03-0.77,0.1-1.53,0.1-2.29c-0.01-0.84-0.13-1.66-1.02-2.11c-0.81-0.89-1.52-1.88-2.71-2.36c-1.04-0.62-2.2-0.91-3.32-1.54
	c-0.19-0.12-0.38-0.25-0.56-0.37c-0.51-0.46-2.64-1.06-3.82-1.08c0.06,0.18,0.12,0.36,0.18,0.54c-0.06-0.18-0.12-0.36-0.18-0.54
	c-0.16-0.12-0.33-0.25-0.49-0.37c-0.06-0.09-0.12-0.27-0.19-0.27c-1.51,0-2.71-0.91-4.09-1.29c-1.46-0.15-2.78-0.79-4.2-1.08
	c-0.25-0.25-0.57-0.23-0.89-0.21c-0.03-0.11-0.09-0.16-0.21-0.12c-0.24-0.19-0.47-0.37-0.71-0.56c-0.05-0.74-0.72-0.69-1.2-0.82
	c-0.32-0.08-0.48,0.17-0.44,0.49c0.08,0.99,0.53,1.85,1.06,2.67c0.44,0.84,0.68,1.76,0.91,2.67c0,0.24,0.02,0.48,0.2,0.66
	c0.26,1.28,0.85,2.49,0.89,3.83c0.03,0.98-0.08,1.98,0.18,2.95c-0.04,0.04-0.04,0.07,0,0.11c-0.28,0.67-0.03,1.34,0,2
	c0.01,0.57,0.03,1.15,0.04,1.72c-0.07,3.13-0.2,6.25,0,9.38c-0.16,1.72,0.26,3.43,0.19,5.15c-0.04,1.08,0.22,2.13,0.33,3.2
	c0,0.86,0,1.73,0,2.6c-0.06,0.01-0.13,0.02-0.19,0.03c-0.36,0.32-0.81,0.31-1.26,0.37c-1.24,0.15-2.48,0.33-3.72,0.49
	c-2.7-0.15-5.36,0.28-8.02,0.55c-2.28,0.2-4.56,0.39-6.85,0.58c-0.37,0.03-0.72,0.08-1.02,0.29c-1.42,0.19-2.88,0.14-4.23,0.7
	c-0.1,0.05-0.2,0.11-0.3,0.17c-0.39-0.54-0.97-0.16-1.45-0.29c-1.18,0.51-2.52,0.37-3.71,0.84c-1.5,0.26-3.01,0.44-4.54,0.51
	c-0.87-0.07-1.74-0.23-2.61,0.02c-0.67-0.06-1.34-0.15-1.97,0.16c-0.22,0.13-0.38,0.29-0.38,0.56c-0.06,0.06-0.12,0.11-0.18,0.16
	c-0.3,0.01-0.44,0.26-0.66,0.4c-0.29,0.26-0.65,0.47-0.81,0.85c0.01,0.07,0.03,0.15,0.04,0.22c-0.01-0.07-0.03-0.15-0.04-0.22
	c-0.32-0.02-0.63-0.03-0.93-0.04c-0.25,0.36,0.13,0.64,0.05,0.94c0.18,0.24,0.35,0.47,0.53,0.71c0.06-0.01,0.13-0.02,0.19-0.02
	c0.42,0.41,0.19,1.11,0.69,1.49c0.4,0.34,0.46,0.93,0.94,1.21c0.26,0.33,0.52,0.67,0.78,1.01c0.28,0.32,0.55,0.64,0.83,0.96
	c0.49,0.69,0.96,1.4,1.69,1.89c0.18,0.24,0.37,0.48,0.55,0.72c0.23,0.08,0.47,0.15,0.71,0.23c-0.02,0.04-0.01,0.09,0.02,0.12
	c0.25,1.09,1.12,1.73,1.86,2.48c0.13,0.48,0.75,0.59,0.88,1.06c0.45,0.4,0.79,0.91,1.34,1.21c0.52,0.62,1.01,1.25,1.77,1.63
	c0.13,0.16,0.25,0.33,0.38,0.5c0.1,0.02,0.2,0.03,0.3,0.05c0.2-0.01,0.4-0.02,0.6-0.02c0.03-0.03,0.06-0.06,0.09-0.09
	c-0.03,0.03-0.06,0.06-0.09,0.09c-0.2,0.01-0.4,0.02-0.6,0.02c1.29,0.73,2.47,1.73,3.99,1.98c1.18,0.19,2.26,0.62,3.35,1.03
	c0.08,0.1,0.16,0.2,0.24,0.29c1.29,0.82,2.64,0.6,4,0.22c0.56,0.08,1.05-0.07,1.56-0.31c0.84-0.4,1.52-1.01,2.28-1.52
	c0.59-0.36,1.28-0.61,1.48-1.37c0.3-0.25,0.6-0.49,0.89-0.74c0.85-0.18,1.73-0.27,2.44-0.83c0.05,0,0.09-0.01,0.13-0.04
	c0.06-0.05,0.12-0.11,0.18-0.17c-0.09-0.15-0.08-0.29-0.04-0.44c-0.03,0.15-0.05,0.29,0.04,0.44c-0.06,0.05-0.12,0.11-0.18,0.17
	c0.53,0.06,1.02-0.04,1.47-0.32c0.47-0.04,0.86-0.39,1.4-0.28c0.39,0.08,0.52-0.21,0.44-0.57c0.06-0.01,0.11-0.03,0.17-0.05
	c0.39,0.08,0.73,0.03,0.96-0.34c-0.08-0.24-0.08-0.48-0.06-0.71c-0.02,0.24-0.02,0.48,0.06,0.71c0.24,0.08,0.35-0.11,0.5-0.21
	c0.35-0.01,0.7-0.02,1.06-0.03c0.08-0.46,0.78-0.49,0.77-1.02c0.14-0.32,0.53-0.29,0.74-0.51c0.7-0.02,1.08-0.82,1.75-0.4
	c0.66,0.41,0.18,2.41,0.4,3.08c-0.04,0.69-0.18,1.39,0.01,2.09c0.01,0.79-0.25,1.57,0,2.35c0,0.1,0,0.2,0.01,0.3
	c-0.12,1.22-0.16,2.45-0.01,3.66c0.35,2.78,0.18,5.56,0.14,8.35c-0.14,0.21,0.16,0.35,0.1,0.55c-0.03,0.17-0.06,0.34-0.09,0.51
	c-0.1,0.01-0.2,0.02-0.31,0.02c-0.18-0.02-0.36-0.04-0.53-0.05c-0.07,0.08-0.13,0.16-0.19,0.24c-0.01,0.14,0.05,0.22,0.13,0.29
	c-0.08-0.07-0.15-0.16-0.13-0.29c0.07-0.08,0.13-0.16,0.2-0.24c-0.48-0.86-9.96,0-11.04,0.55c-0.31-0.01-0.59,0.06-0.87,0.2
	c-3.18,0.02-6.35,0.08-9.52,0.37c-1.34-0.02-2.66,0.25-3.99,0.38c-0.01,0.04-0.02,0.08-0.04,0.12c-1.75,0.13-3.5,0.28-5.27,0.17
	c-0.02-0.04-0.03-0.09-0.05-0.13c-1.06-0.03-1.93-1.01-3.11-0.65c0.1,0.58,0.15,1.07,0.38,1.52c0.07,0.06,0.14,0.12,0.22,0.18
	c-0.04,0.83-0.2,1.67,0.19,2.47c-0.51,0.75,0.09,1.32,0.33,1.95c0.01,0.21,0.03,0.42,0.04,0.63c0,0.25,0.15,0.42,0.3,0.59
	c0.15,0.63,0.43,1.19,0.94,1.63c0.11,0.01,0.23,0.02,0.34,0.02c0.06,0.11,0.13,0.21,0.2,0.31c0.23,0.47,0.17,1.13,0.9,1.26
	c-0.05,0.05-0.1,0.11-0.16,0.16c0.12,0.24,0.23,0.48,0.35,0.71c-0.03,0.42,0.45,0.53,0.57,0.87c0.13,0.18,0.25,0.36,0.38,0.54
	c0.63,0.97,1.07,2.07,1.97,2.87c0.12,0.16,0.23,0.33,0.35,0.49c0.07,0.06,0.13,0.12,0.2,0.18c0.07,0.07,0.13,0.14,0.2,0.21
	c0.5,0.57,1,1.13,1.5,1.7l0.01-0.01c0.16,0.14,0.32,0.27,0.48,0.41c0.3,0.53,0.66,1.01,1.27,1.23c0.41,0.33,0.78,0.72,1.32,0.87
	c0.33,0.4,0.75,0.81,1.22,0.85c1.74,0.14,3.46-0.15,5.19-0.29c1.26-0.4,2.35-1.13,3.47-1.79c0.13-0.15,0.26-0.29,0.23-0.51
	c0.17-0.01,0.33-0.02,0.5-0.03c1.35-0.16,2.38-0.88,3.33-1.75c0.24-0.02,0.4-0.16,0.52-0.35c0.81-0.38,1.58-0.92,2.43-1.12
	c0.98-0.22,1.62-0.67,2.01-1.52c0.8-0.46,1.51-1.12,2.56-1.05c0.24,0.89-0.08,1.8,0.28,2.64c0.05,1.36-0.19,2.73,0.16,4.08
	c0.01,0.99,0.03,1.98,0.04,2.97c0,0.12,0,0.24,0,0.35c-0.18,2.56-0.22,5.13-0.2,7.69c0.01,1.66,0.86,5.14,0.07,6.65
	c-1.58,0.4-3.25,0.35-4.81,0.86c-0.12,0-0.24,0.01-0.37,0.02c-0.76,0.21-1.61,0.17-2.27,0.69l-0.06-0.02l-0.05,0.04
	c-0.49,0.07-0.98,0.14-1.47,0.21l0.02-0.07c-0.13,0.02-0.25,0.04-0.38,0.06c-0.12-0.01-0.24-0.02-0.37-0.02
	c-0.25,0.15-0.5,0.31-0.75,0.46c0.06,0.2,0.19,0.34,0.39,0.42c-0.2-0.08-0.33-0.22-0.39-0.42c-0.28,0.07-0.55,0.14-0.83,0.21
	c-0.47-0.75-5.07,0.08-5.93,0.19c-1.97,0.25-3.86,0.87-5.83,1.07c-0.3,0.12-0.61,0.25-0.91,0.37c-0.12,0.07-0.24,0.14-0.36,0.21
	c-0.74-0.06-1.4,0.41-2.14,0.34c-0.97,0.51-2.07,0.55-3.13,0.73c-0.01,0.05-0.02,0.09-0.04,0.14c-1.09,0.19-2.18,0.38-3.27,0.56
	c-0.14,0.04-0.28,0.09-0.42,0.13c-1.26,0.38-2.61,0.42-3.86,0.88c0.32,0.01,0.64,0.02,0.96,0.02c-0.32-0.01-0.64-0.02-0.96-0.02
	c-0.53,0.07-1.07,0.13-1.6,0.2c-0.06,0.06-0.12,0.12-0.18,0.17c-0.06,0.01-0.13,0.02-0.19,0.03c-0.17-0.01-0.34-0.01-0.51-0.02
	c-0.76,0.38-1.63,0.22-2.41,0.53c-0.91,0.13-1.81,0.26-2.72,0.39c-0.21,0.1-0.42,0.19-0.62,0.29c-1.22,0.19-2.38,0.65-3.62,0.76
	c-0.15,0.12-0.3,0.22-0.51,0.16c-0.2,0.11-0.4,0.22-0.61,0.32c0.04,0,0.08,0.01,0.1,0.04c-0.03-0.02-0.06-0.04-0.1-0.04
	c-1.25-0.02-2.39,0.6-3.64,0.56c-0.1,0.11-0.23,0.16-0.35,0.22c-0.2,0.04-0.39,0.09-0.58,0.14c-0.1,0-0.18,0.02-0.28,0.01
	c-1.31,0.29-2.61,0.57-3.92,0.86c-0.76-0.02-1.5,0.14-2.22,0.34c-0.3,0.11-0.6,0.21-0.9,0.32c-0.76-0.2-1.47-0.03-2.18,0.21
	c-0.41,0.02-0.83,0.05-1.24,0.07c-1.87,0.8-4.87-0.03-6.49,1.17l-0.06-0.01c-0.28-0.37-0.65-0.09-0.98-0.13
	c-0.19,0.06-0.38,0.12-0.57,0.18c-0.61,0-2.13-0.28-2.64,0.09c-0.48,0.34-1.09,1.19,0.06,1.35c0,0,0-0.01,0-0.01
	c0.12,0.03,0.15,0.08,0.02,0.15c0.13,0.18,0.26,0.35,0.39,0.53c-0.05,0.19,0,0.42-0.23,0.53c0.02,0.21,0.04,0.43,0.06,0.64l0.09,0
	l0.08-0.02c0.02-0.22,0.14-0.36,0.34-0.45c-0.06-0.24-0.12-0.47-0.18-0.71c0.06,0.24,0.12,0.47,0.18,0.71
	c-0.2,0.08-0.32,0.23-0.34,0.45c0.06,0.02,0.11,0.03,0.17,0.05c0.37,0.55-0.06,1.31,0.52,1.8c0.42,0.26,0.6,0.73,0.94,1.05
	c0.12,0,0.25,0,0.37,0c0.23,0.19,0.45,0.38,0.68,0.57c0.45,0.45,0.61,1.18,1.34,1.38c0.25,0.29,0.49,0.58,0.74,0.87
	c0.13,0.04,0.25,0.08,0.38,0.13c0.78,0.68,1.85,0.99,2.5,1.84c0.08,0.06,0.15,0.11,0.23,0.17c0.1,0.13,0.17,0.3,0.38,0.27
	c0.04,0.32,0.33,0.44,0.53,0.63c0.92,0.09,1.53,0.7,2.19,1.23c0,0.06-0.01,0.12-0.02,0.17c0.07,0.06,0.14,0.12,0.2,0.18
	c0.55,0.29,1.1,0.57,1.65,0.86c0.11,0.07,0.22,0.15,0.33,0.22c0.01,0.05,0.01,0.11-0.01,0.16c0.12,0.4,0.61,0.25,0.81,0.52
	c0.19,0.48,0.69,0.62,1.06,0.91c0.41-0.02,0.7,0.32,1.09,0.37c0.58,0.35,1.16,0.71,1.75,1.04c0.55,0.31,2.01,0.09,2.47-0.34
	c0.61-0.07,1.21-0.13,1.82-0.2c0.77,0.18,1.39-0.23,2.03-0.52c1.59-0.18,3.05-0.72,4.39-1.57c0.17-0.02,0.34-0.05,0.51-0.07
	c0.56-0.55,1.38-0.37,2.02-0.69c0.01-0.05,0.02-0.1,0.03-0.16c0.38-0.07,0.78-0.08,1.09-0.36c0.13-0.04,0.26-0.09,0.39-0.13
	c0.81-0.06,1.6-0.24,2.36-0.54c0.06-0.03,0.12-0.05,0.18-0.08c0.31,0.09,0.27-0.31,0.5-0.33c0.52-0.4,1.03-0.8,1.55-1.2
	c0.1-0.02,0.19-0.04,0.29-0.07c0.21-0.63,1.01-0.66,1.31-1.2c0.13-0.06,0.25-0.12,0.38-0.18c0.19-0.38,0.69-0.38,0.92-0.72
	c0.32,0.11,0.54-0.07,0.71-0.27c0.86-1.04,2.04-1.26,3.31-1.28c1.19,0.19,2.36,0.38,3.59,0.2c1.8-0.27,3.54-0.7,5.17-1.5
	c0.51-0.4,1.02-0.79,1.53-1.19c-0.24-0.12-0.21-0.33-0.21-0.54c-0.06,0-0.13,0-0.19,0c0.06,0,0.12,0,0.19,0
	c0,0.21-0.03,0.42,0.21,0.54c0.54-0.3,1.08-0.61,1.61-0.91c0.64-0.24,1.26-0.49,1.82-0.88c0.61-0.3,1.22-0.6,1.83-0.91
	c0.06,0.01,0.12,0.01,0.18,0.01c0.77-0.77,2.52-0.6,3.53-0.66c0.52-0.03,2.64,0.29,3.07-0.21l-0.04-0.04l0.04,0.04
	c0.47-0.09,0.85-0.31,1.13-0.7c0.66-0.34,1.33-0.68,1.83-1.24c0.17-0.13,0.34-0.26,0.51-0.38c0.39,0.13,0.68-0.03,0.93-0.29
	c0.66-0.26,1.32-0.51,1.99-0.76c-0.01-0.06-0.02-0.12-0.03-0.18c0.2-0.1,0.4-0.2,0.61-0.3c0.17-0.14,0.44-0.15,0.53-0.39
	c0.29-0.02,0.62,0.04,0.74-0.33c0.18-0.02,0.36-0.05,0.54-0.07c0.85,0.48,1.03,1.59,0.39,2.36c0.07,0.29,0.15,0.57,0.22,0.86
	c0.05,0,0.1,0,0.15,0.01c-0.05,0-0.1,0-0.15-0.01c-0.02,0.06-0.03,0.11-0.05,0.17c-0.17,1.71,0,3.44-0.36,5.14
	c0.07,0.18,0.08,0.35-0.01,0.53c0.01,0.36,0.01,0.71,0.02,1.06c-0.28,0.94-0.2,1.9-0.23,2.87c-0.01,0.33,0.12,0.7-0.16,1
	c-0.32,0.45-0.08,0.96-0.15,1.44c-0.02,1.52-0.04,3.05-0.05,4.57c-0.25,0.31-0.16,0.68-0.16,1.02c0,1.55,0.02,3.1,0.04,4.66
	c0.05,0.07,0.09,0.14,0.14,0.2c0.01,0.94,0.01,1.89,0.02,2.83c0.03,0.05,0.06,0.1,0.1,0.15c-0.1,0.42-0.16,0.85,0.07,1.26
	c0.36,0.21,0.09,0.65,0.34,0.9c-0.14,0.76,0.12,1.51,0.07,2.26c0.16,1.63,0.31,3.26,0.49,4.89c0.22,1.95,0.24,3.92,0.91,5.8
	c-0.03,0.05-0.02,0.09,0.02,0.13c0.09,0.84,0.12,1.68,0.36,2.49c-0.03,0.37,0.02,0.72,0.19,1.05c-0.03,0.62,0.14,1.21,0.3,1.8
	c0.2,1.06,0.4,2.13,0.6,3.19c0.18,0.77,0.37,1.53,0.55,2.3c0.04,0.95-0.05,1.92,0.37,2.83c-0.03,0.05-0.02,0.11,0.03,0.15
	c-0.02,0.38,0.05,0.75,0.1,1.13c0.15,1.22,0.68,2.38,0.65,3.62c0.05,0.07,0.1,0.13,0.16,0.2c0.02,1.16,0.32,2.27,0.7,3.37
	c0.12,1.63,0.06,3.26,0.14,4.94c0.64-0.39,1.04-0.89,1.39-1.42c0.02-0.02,0.04-0.03,0.05-0.05c0.13-0.15,0.24-0.34,0.33-0.54
	c0.15-0.33,0.23-0.69,0.15-1c0.3-0.41,0.6-0.83,0.9-1.24c-0.3,0.41-0.6,0.83-0.9,1.24c0.08,0.3,0,0.66-0.15,1
	c0.45-0.79,0.86-1.59,1.64-2.23c0.54-0.36,1.08-0.71,1.46-1.24c0.44-0.26,1.03,0.03,1.43-0.36c0.36-0.65,0.72-0.24,1.08,0
	c0-0.09,0-0.18,0.01-0.27c0,0.09-0.01,0.18-0.01,0.27c0.04,0.18,0.01,0.39,0.19,0.53c0.06,0.06,0.13,0.13,0.19,0.19
	c0.04-0.04,0.09-0.05,0.14-0.05c0.02-0.15,0.04-0.31,0.06-0.46c-0.02-0.24-0.03-0.49-0.05-0.73c-0.05,0-0.1,0-0.16,0
	c0.05,0,0.1,0,0.16,0c0.01,0.24,0.03,0.49,0.05,0.73c0.07-0.35,0.13-0.7,0.2-1.04c-0.02-0.07-0.03-0.15-0.05-0.22
	c0.02,0.07,0.03,0.15,0.05,0.22c0.17-0.13,0.41-0.19,0.48-0.42c0.08-0.11,0.15-0.22,0.23-0.33c0.49-0.44-0.17-5.05-0.55-5.68
	c-0.25-0.37-0.04-0.87-0.34-1.23c0.23-2.06,0.45-4.13,0.68-6.19c0-0.12,0.01-0.24,0.01-0.35c0.01-0.1,0.03-0.2,0.04-0.3
	c0.29-0.31,0.68-0.31,1.07-0.28c0.63,0.04,0.96-0.2,0.92-0.83c0.01-0.11,0.03-0.22,0.04-0.33c0.06-0.04,0.11-0.08,0.17-0.12
	c0.34-0.96,0.43-1.93,0.18-2.92c0.04-0.06,0.04-0.11-0.01-0.16c0-0.35,0-0.7,0-1.06c-0.1-0.07-0.12-0.19-0.15-0.3
	c0.03,0.11,0.05,0.24,0.15,0.3c0.63-1.34,0-3.83-0.01-5.25c-0.01-1.14,0.86-4.3,0.02-5.11l0.03-0.04l-0.03-0.04
	c0.23-0.2,0.26-0.44,0.15-0.71c0.02-1.19,0.09-2.39-0.16-3.57c-0.01-0.22-0.03-0.45-0.04-0.67c0.02-0.82,0.05-1.64,0.07-2.46
	c0.08-2.72,0.49-5.43,0.31-8.16c0.01-0.85,0.05-1.71-0.34-2.52c0.02-0.18-0.05-0.38,0.12-0.52c0.33-2.11-0.38-4.17-0.21-6.3
	c0.22-2.63,0.1-5.28,0.15-7.92c0.02-0.97,0.26-1.95-0.06-2.92c0.12-0.16,0.24-0.33,0.36-0.49c0.72-0.31,1.61-0.11,2.23-0.72
	c0.63,0.12,1.16-0.27,1.76-0.33c0.13-0.02,0.26-0.05,0.39-0.07c0.16-0.37,0.14-0.6,0-0.73c0.14,0.13,0.15,0.36,0,0.73
	c0.12-0.05,0.24-0.11,0.36-0.16c1.39,0.29,2.81,0.14,4.21,0.34c0.37-0.01,0.74-0.01,1.11-0.02v0.2c0.58,0.01,1.15,0,1.73,0.02
	c0.38,0.01,0.66-0.08,0.7-0.5c0.79-0.3,1.58-0.59,2.37-0.89c-0.17-0.16-0.37-0.15-0.57-0.14c0.2-0.02,0.4-0.02,0.57,0.14
	c0.68-0.03,1.38,0.01,1.99-0.37c0.49-0.08,1.05,0.1,1.44-0.34l0.09,0l0.08-0.04c1.1,0.22,2.16,0.65,3.3,0.69
	c1.17,0.67,3.21-0.2,4.44-0.42c1.24-0.22,3.29,0.17,4.38-0.42l0.08,0.01l0.07-0.04c0.53-0.03,1.06-0.04,1.59,0.02
	c0.71,0.07,1.44,0.01,2.09-0.35c0.06-0.06,0.12-0.11,0.18-0.17c1.21-0.21,2.35-0.05,3.43,0.53c0.02,0.05,0.01,0.11,0,0.16
	c0.28,0.22,0.62,0.27,0.95,0.36c0.42,0,0.85,0,1.28,0c0.01-0.07,0.01-0.13,0.02-0.19c-0.01,0.06-0.01,0.13-0.02,0.19
	c1.4,0.17,2.81,0.35,4.21,0.52c0.21,0.19,0.45,0.31,0.74,0.33c0.22,0.14,0.44,0.27,0.67,0.41c0.25,0.48,0.65,0.61,1.16,0.47
	c0.77-0.02,1.54-0.07,2.31-0.05c0.26,0.01,0.62-0.1,0.78,0.25c0.2,0.22,0.44,0.36,0.75,0.37c1.01,0.21,1.79,0.89,2.73,1.24
	c1.79,1.35,5.3,1.46,7.51,1.18c2.45-0.31,4.3-2.1,5.01-4.34l0.07,0l0.05-0.04c0.54-0.49,0.61-1.1,0.53-1.76
	C285.72,268.58,285.36,267.61,284.34,266.93"/>
<path class="st0" d="M333.53,245.53c-1.62-14.72-13.77-21.6-9.22,0.48c9.21,44.66-26.8,88.01-75.99,101.71
	c-48.6,12.32-112.91-0.29-139.03-48.75c-27.62-51.25-22.91-141.35,60.47-161.02c0,0,18.18-2.8,21.97-0.6
	c4.77,2.77,10.42,5.69,20.59,4.98c16.24-1.15,24.96-9.11,33.44-13.21c8.68-4.2,44.73-0.2,53.68,4.92c6.11,3.5,14.38,4.34,20.46,2.09
	c7.79-2.88,6.18-16.1,6.61-17.77c0,0-0.08,0.04,0.7-2.42c10-23.96-0.9-33.78-1.5-34.33c-0.91-0.83-2.49-0.67-3.33,0.09
	c-8.64,7.88-24.2,6.7-30.18,6.69c-9.36-0.02-16.45-2.03-22.21-8.92c-4.71-5.63-12.81-8.45-20.41-9.11
	c-8.02-0.7,0.74-16.22-40.63-15.89c-11.59,0.09-22.82,3.98-34.24,5.91c-13.1,2.21-26.2,4.61-39.61,2.5
	c-6.46-1.02-11.75-3.31-13.26-9.9c-0.09-0.4-0.47-0.64-0.84-0.64c-0.2,0-0.4,0.07-0.56,0.22c-2.41,2.25-2.87,5.82-1.13,9.35
	c2.65,5.4,7.08,8.99,12.65,11.01c7.36,2.67,13.78,2.91,20.98,2.57c1.92-0.09,2.56,2.46,0.81,3.24c-7.69,3.44-18.74,8.4-25.21,11.41
	c-14.88,6.92-30.25,9.98-46.65,5.76c-6.71-1.72-12.61-4.42-16.37-10.37c-0.53-0.83-0.99-1.7-1.5-2.63c-0.38-0.7-1.41-0.66-1.75,0.05
	c-1.26,2.71-0.9,6.2-0.84,8.45c2.75,15.33,17.72,26.55,31.96,27.51c10.72,0.72,21.48-0.54,31.43-4.22c5.14-1.9,7.74,0,1.47,3.63
	c-85.37,49.48-68.84,155.36-35.31,196.74c32.66,40.31,75.14,52.67,113.96,51.45c3.65,0.13,7.5-0.38,11.16-0.7
	c0.1-0.01,0.21-0.02,0.31-0.04c0.18-0.02,0.35-0.04,0.53-0.06c24.05-2.23,43.27-7.57,61.64-17.67
	C296.38,338.27,339.99,304.19,333.53,245.53"/>
<g>
	<path d="M530.42,155.86c-11.9,34.27-25.04,77.78-31.08,109.22c-9.95,3.02-26.29,5.86-36.23,6.57c3.9-16.52,9.06-34.81,14.38-52.56
		c-30.37,3.02-46.53,9.23-56.47,47.06l-32.5,3.2c6.75-22.73,16.52-52.57,24.15-73.52l-5.86-4.79c4.79-11.9,12.08-27.88,18.29-39.61
		c10.66-2.31,27.35-4.62,37.29-4.97c-7.28,17.4-15.09,37.65-20.95,55.23c9.77-1.42,24.15-3.02,32.85-3.55l4.79,15.45
		c7.1-23.8,14.92-48.13,21.67-67.48L530.42,155.86z"/>
	<path d="M620.69,170.57c-13.77,0-27.84,0.61-40.99,1.68c-2.75,6.27-5.51,13.31-8.11,20.8c14.99-2.45,31.97-4.74,44.81-5.66
		l-15.14,22.48l-27.38,1.22l-5.66-7.95c-6.73,21.11-11.78,43.9-12.85,60.26c-9.33,2.29-22.48,5.05-32.27,6.27
		c2.14-32.42,16.98-67.91,27.53-92.84l-10.86-18.05c18.05-3.21,34.87-5.5,46.95-6.58l2.6-4.28c12.08-1.07,27.07-1.38,39.31-1.38
		c1.68,6.42,3.06,16.98,3.67,24.17C628.49,170.57,624.67,170.57,620.69,170.57z"/>
	<path d="M760.98,170.57c-13.77,0-27.84,0.61-40.99,1.68c-2.75,6.27-5.51,13.31-8.11,20.8c14.99-2.45,31.97-4.74,44.81-5.66
		l-15.14,22.48l-27.38,1.22l-5.66-7.95c-6.73,21.11-11.78,43.9-12.85,60.26c-9.33,2.29-22.48,5.05-32.27,6.27
		c2.14-32.42,16.98-67.91,27.53-92.84l-10.86-18.05c18.05-3.21,34.87-5.5,46.95-6.58l2.6-4.28c12.08-1.07,27.07-1.38,39.31-1.38
		c1.68,6.42,3.06,16.98,3.67,24.17C768.78,170.57,764.96,170.57,760.98,170.57z"/>
	<path d="M865.45,203.75l-5.66,0.77c-7.49,28.6-26.31,48.48-55.06,48.48c-26.92,0-40.53-19.27-40.53-41.45
		c0-35.03,26.46-65.31,62.55-65.31c26.92,0,40.53,17.74,40.53,41.91C867.29,193.2,866.68,198.4,865.45,203.75z M824.01,171.33
		c-16.21,0-27.07,11.93-33.65,32.88l5.35,1.83c-0.76,2.6-1.07,5.2-1.07,7.65c0,7.19,3.52,13.15,13,13.15
		c18.66,0,30.9-22.64,30.9-39.31C838.54,178.98,834.56,171.33,824.01,171.33z"/>
	<path d="M976.2,203.75l-5.66,0.77c-7.49,28.6-26.31,48.48-55.06,48.48c-26.92,0-40.53-19.27-40.53-41.45
		c0-35.03,26.46-65.31,62.55-65.31c26.92,0,40.53,17.74,40.53,41.91C978.04,193.2,977.43,198.4,976.2,203.75z M934.75,171.33
		c-16.21,0-27.07,11.93-33.65,32.88l5.35,1.83c-0.76,2.6-1.07,5.2-1.07,7.65c0,7.19,3.52,13.15,13,13.15
		c18.66,0,30.89-22.64,30.89-39.31C949.28,178.98,945.31,171.33,934.75,171.33z"/>
	<path d="M1093.38,196.57c-10.25,25.39-37.93,48.64-75.86,55.83l-11.93-9.48l-3.82,9.79l-21.41-1.38
		c7.19-26.61,15.75-53.53,23.71-76.93l-12.85-16.52c18.66-7.95,37.32-11.78,53.38-11.78c27.22,0,46.95,10.71,46.95,29.67
		c0,4.89-1.38,10.25-4.13,16.21L1093.38,196.57z M1043.67,169.34c-2.75,0-5.96,0.15-9.33,0.61c-6.58,18.2-14.84,42.21-19.88,61.18
		c20.96-7.04,48.48-21.87,48.48-47.57C1062.94,173.93,1056.36,169.34,1043.67,169.34z"/>
	<path d="M1186.69,169.95c-15.3,0.15-52.92,1.07-52.92,10.4c0,1.68,1.53,3.52,4.74,3.67c22.64,1.22,37.02,13.46,37.02,27.84
		c0,30.28-50.63,40.38-72.96,42.37l-14.53-25.54c8.41-0.15,61.18-3.67,61.18-17.74c0-3.21-5.66-5.05-13.92-5.35l-2.75,3.21
		c-16.82-3.06-28.91-12.24-28.91-22.94c0-5.81,3.67-12.08,12.24-18.05l-2.14-5.66c15.14-12.08,31.97-16.06,53.08-16.06
		c2.29,0,4.59,0,7.04,0.16L1186.69,169.95z"/>
</g>
<g>
	<path d="M1207.97,238.05c-2.8,6.48-4.38,14.01-4.73,19.79c-2.36,0.61-5.16,1.31-7.97,1.66c0.61-5.43,3.85-16.2,5.87-20.67
		c-2.01,0.26-4.11,0.7-5.78,1.05l-4.29-5.17c6.48-1.49,17.51-3.5,25.13-3.85c0.44,2.01,0.7,4.64,0.88,6.65
		C1214.53,237.52,1210.59,237.79,1207.97,238.05z M1243.96,235.25c-2.02,4.9-3.68,13.05-3.85,18.65l-7.36,3.15
		c0.35-4.82,1.4-11.12,2.71-16.02l-10.25,14.54c-1.93-3.76-3.15-8.06-3.85-12.35c-1.84,3.94-3.42,8.23-4.64,12.17l-8.14,1.58
		c3.15-8.23,7.79-17.95,11.3-23.9c2.1-0.7,5.43-1.4,8.05-1.66c-0.09,1.4-0.17,2.98-0.17,4.55c0,1.75,0.09,3.5,0.26,5.08l9.46-10.16
		L1243.96,235.25z"/>
</g>
</svg>
